<svg width="320" height="568" viewBox="0 0 320 568" xmlns="http://www.w3.org/2000/svg">
  <defs>
    <linearGradient id="bg" x1="0" y1="0" x2="1" y2="1">
      <stop offset="0" stop-color="#101736"/>
      <stop offset="1" stop-color="#062a38"/>
    </linearGradient>
  </defs>
  <rect x="8" y="8" rx="32" ry="32" width="304" height="552" fill="url(#bg)" stroke="#1d2337" stroke-width="3"/>
  <rect x="28" y="80" width="264" height="380" rx="18" fill="rgba(255,255,255,.04)" stroke="#28304b"/>
  <circle cx="160" cy="40" r="6" fill="#1d2337"/>
  <rect x="90" y="22" width="140" height="8" rx="4" fill="#1d2337"/>
  <g fill="#6ea8ff" opacity=".9">
    <rect x="44" y="108" width="16" height="16" rx="4"/>
    <rect x="44" y="148" width="16" height="16" rx="4"/>
    <rect x="44" y="188" width="16" height="16" rx="4"/>
  </g>
  <g fill="#66ffb2" opacity=".9">
    <rect x="72" y="108" width="184" height="10" rx="5"/>
    <rect x="72" y="148" width="154" height="10" rx="5"/>
    <rect x="72" y="188" width="168" height="10" rx="5"/>
  </g>
  <g fill="#a9b4cc">
    <rect x="72" y="124" width="132" height="8" rx="4" />
    <rect x="72" y="164" width="120" height="8" rx="4" />
    <rect x="72" y="204" width="144" height="8" rx="4" />
  </g>
  <rect x="62" y="428" width="196" height="36" rx="10" fill="#0c1224" stroke="#28304b"/>
  <text x="160" y="452" text-anchor="middle" font-size="14" fill="#e8eefc" font-family="Arial" >Drop your Rush</text>
</svg>